<svg width="41" height="40" viewBox="0 0 41 40" fill="none" xmlns="http://www.w3.org/2000/svg">
<rect x="0.536987" y="0.23103" width="39.5379" height="39.5379" rx="19.769" fill="#1F1F1F"/>
<g clip-path="url(#clip0_8_3263)">
<path d="M18.7145 24.5915C18.9234 24.8006 19.1715 24.9664 19.4446 25.0796C19.7177 25.1928 20.0104 25.251 20.306 25.251C20.6016 25.251 20.8942 25.1928 21.1673 25.0796C21.4404 24.9664 21.6885 24.8006 21.8975 24.5915L24.3057 22.1833C24.4348 22.0404 24.5041 21.8535 24.4991 21.661C24.4942 21.4685 24.4154 21.2853 24.2792 21.1494C24.1429 21.0134 23.9595 20.935 23.7671 20.9305C23.5746 20.9259 23.3877 20.9956 23.2452 21.125L21.0507 23.3202L21.056 11.75C21.056 11.5511 20.9769 11.3603 20.8363 11.2197C20.6956 11.079 20.5049 11 20.306 11C20.107 11 19.9163 11.079 19.7756 11.2197C19.635 11.3603 19.556 11.5511 19.556 11.75L19.5492 23.306L17.3667 21.125C17.226 20.9844 17.0351 20.9054 16.8362 20.9055C16.6372 20.9055 16.4465 20.9846 16.3058 21.1254C16.1652 21.2661 16.0862 21.4569 16.0863 21.6559C16.0864 21.8548 16.1655 22.0456 16.3062 22.1862L18.7145 24.5915Z" fill="white"/>
<path d="M28.556 23C28.357 23 28.1663 23.079 28.0256 23.2197C27.885 23.3603 27.806 23.5511 27.806 23.75V26.75C27.806 26.9489 27.7269 27.1397 27.5863 27.2803C27.4456 27.421 27.2549 27.5 27.056 27.5H13.556C13.357 27.5 13.1663 27.421 13.0256 27.2803C12.885 27.1397 12.806 26.9489 12.806 26.75V23.75C12.806 23.5511 12.7269 23.3603 12.5863 23.2197C12.4456 23.079 12.2549 23 12.056 23C11.857 23 11.6663 23.079 11.5256 23.2197C11.385 23.3603 11.306 23.5511 11.306 23.75V26.75C11.306 27.3467 11.543 27.919 11.965 28.341C12.3869 28.7629 12.9592 29 13.556 29H27.056C27.6527 29 28.225 28.7629 28.6469 28.341C29.0689 27.919 29.306 27.3467 29.306 26.75V23.75C29.306 23.5511 29.2269 23.3603 29.0863 23.2197C28.9456 23.079 28.7549 23 28.556 23Z" fill="white"/>
</g>
<defs>
<clipPath id="clip0_8_3263">
<rect width="18" height="18" fill="white" transform="translate(11.306 11)"/>
</clipPath>
</defs>
</svg>
