<svg width="50" height="31" viewBox="0 0 50 50" fill="none" xmlns="http://www.w3.org/2000/svg">
<g clip-path="url(#clip0_1650_11)">
<path d="M24.807 8.29C24.7141 8.19709 24.6038 8.12339 24.4824 8.07311C24.361 8.02283 24.2309 7.99695 24.0995 7.99695C23.9681 7.99695 23.838 8.02283 23.7166 8.07311C23.5952 8.12339 23.4849 8.19709 23.392 8.29C23.2991 8.38291 23.2254 8.49322 23.1751 8.61461C23.1248 8.736 23.0989 8.86611 23.0989 8.9975C23.0989 9.1289 23.1248 9.25901 23.1751 9.3804C23.2254 9.50179 23.2991 9.61209 23.392 9.705C25.059 11.3759 25.9951 13.6398 25.9951 16C25.9951 18.3602 25.059 20.6241 23.392 22.295C23.2044 22.4826 23.0989 22.7371 23.0989 23.0025C23.0989 23.2679 23.2044 23.5224 23.392 23.71C23.5796 23.8976 23.8341 24.0031 24.0995 24.0031C24.3649 24.0031 24.6194 23.8976 24.807 23.71C26.8488 21.6636 27.9954 18.8908 27.9954 16C27.9954 13.1092 26.8488 10.3364 24.807 8.29Z" fill="white"/>
<path d="M22.1 11.291C22.0071 11.1977 21.8967 11.1237 21.7752 11.0731C21.6537 11.0225 21.5234 10.9964 21.3918 10.9962C21.2602 10.9959 21.1298 11.0216 21.0081 11.0718C20.8864 11.1219 20.7758 11.1956 20.6825 11.2885C20.5893 11.3814 20.5153 11.4918 20.4647 11.6133C20.4141 11.7348 20.3879 11.8651 20.3877 11.9967C20.3875 12.1283 20.4132 12.2587 20.4633 12.3804C20.5135 12.5021 20.5871 12.6127 20.68 12.706C21.5528 13.5801 22.043 14.7648 22.043 16C22.043 17.2352 21.5528 18.4199 20.68 19.294C20.5871 19.3872 20.5135 19.4978 20.4633 19.6195C20.4132 19.7412 20.3875 19.8716 20.3877 20.0032C20.3879 20.1349 20.4141 20.2652 20.4647 20.3867C20.5153 20.5082 20.5893 20.6186 20.6825 20.7115C20.8708 20.8991 21.126 21.0043 21.3918 21.0038C21.5234 21.0036 21.6537 20.9774 21.7752 20.9268C21.8967 20.8762 22.0071 20.8022 22.1 20.709C23.3473 19.4592 24.0479 17.7657 24.0479 16C24.0479 14.2343 23.3473 12.5407 22.1 11.291Z" fill="white"/>
<path d="M17.82 4.19999C14.7793 4.77126 12.0747 6.48984 10.266 8.99999H9C7.67457 9.0021 6.40403 9.52957 5.4668 10.4668C4.52958 11.404 4.00212 12.6746 4 14V18C4.00212 19.3254 4.52958 20.596 5.4668 21.5332C6.40403 22.4704 7.67457 22.9979 9 23H10.266C12.075 25.5098 14.7795 27.2282 17.82 27.8C17.8796 27.8116 17.9403 27.8173 18.001 27.817C18.2662 27.817 18.5206 27.7116 18.7081 27.5241C18.8956 27.3366 19.001 27.0822 19.001 26.817V5.18599C19.0014 5.03912 18.9694 4.89398 18.9073 4.76087C18.8453 4.62776 18.7546 4.50996 18.6419 4.41584C18.5292 4.32171 18.3971 4.25358 18.255 4.21627C18.113 4.17896 17.9644 4.17341 17.82 4.19999ZM17 25.535C14.7944 24.8319 12.8979 23.3912 11.629 21.455C11.5383 21.3155 11.4143 21.2009 11.2682 21.1214C11.122 21.042 10.9584 21.0002 10.792 21H9C8.20435 21 7.44129 20.6839 6.87868 20.1213C6.31607 19.5587 6 18.7956 6 18V14C6 13.2043 6.31607 12.4413 6.87868 11.8787C7.44129 11.3161 8.20435 11 9 11H10.8C10.9662 11 11.1297 10.9585 11.2758 10.8794C11.422 10.8004 11.5461 10.6861 11.637 10.547C12.9033 8.61123 14.7969 7.16993 17 6.46499V25.535Z" fill="white"/>
</g>
<line x1="29.9914" y1="29.9914" x2="1.29292" y2="2.70714" stroke="#EC4C4C" stroke-width="2"/>
<line x1="1.29289" y1="29.8614" x2="29.29292" y2="1.5771" stroke="#EC4C4C" stroke-width="2"/>
<defs>
<clipPath id="clip0_1650_11">
<rect width="24" height="24" fill="white" transform="translate(4 4)"/>
</clipPath>
</defs>
</svg>
