<?xml version="1.0" encoding="iso-8859-1"?>
<svg fill="white" height="800px" width="800px" version="1.1" id="Layer_1" xmlns="http://www.w3.org/2000/svg"
	 viewBox="0 0 512.832 512.832" xml:space="preserve">
<g>
	<g>
		<g>
			<path d="M480.416,309.333c0-15.125-31.168-70.912-46.72-97.813c1.451-7.68,4.053-25.237,4.053-51.52
				c0-45.547-60.288-160-202.667-160C95.285,0,32.416,106.048,32.416,181.333c0,53.248,31.467,107.819,56.725,151.616
				c14.72,25.536,28.608,49.643,28.608,61.717c0,27.157-44.16,80.981-61.163,99.435c-4.011,4.331-3.733,11.072,0.597,15.061
				c2.048,1.92,4.651,2.837,7.232,2.837c2.88,0,5.739-1.152,7.829-3.435c6.848-7.403,66.837-73.536,66.837-113.899
				c0-17.792-13.867-41.877-31.445-72.341c-24-41.621-53.867-93.419-53.867-140.971c0-52.203,44.331-160,181.333-160
				c135.979,0,181.333,109.312,181.333,138.667c0,32.64-4.309,50.581-4.352,50.773c-0.661,2.688-0.235,5.547,1.131,7.936
				c21.461,36.864,45.12,82.069,45.909,90.453c-0.981,2.944-12.032,8.64-23.552,11.072c-2.987,0.619-5.547,2.496-7.061,5.12
				c-1.493,2.645-1.835,5.803-0.875,8.683l8.576,25.749l-5.995,5.995c-2.624,2.624-3.392,6.251-2.709,9.643
				c-1.472,0.704-2.965,1.536-4.373,2.773c-3.051,2.709-6.72,7.787-6.72,16.448c0,8.533,3.584,13.867,6.187,17.771
				c2.603,3.883,4.48,6.699,4.48,14.229c0,8.32-3.179,14.72-44.395,21.483c-28.181,4.608-94.272,28.267-94.272,53.184
				c0,5.888,4.629,11.499,10.517,11.499c5.909,0,10.517-3.947,10.517-9.835c3.776-7.616,41.643-28.075,76.693-33.813
				c26.261-4.288,62.272-10.176,62.272-42.517c0-14.08-4.885-21.312-8.085-26.112c-2.176-3.221-2.581-4.011-3.925-5.973
				c5.76,0.747,11.2-3.392,11.925-9.259c0.277-2.24-0.341-4.309-1.301-6.165l8.939-8.939c2.859-2.859,3.861-7.083,2.581-10.923
				l-7.125-21.376C463.669,333.696,480.416,324.992,480.416,309.333z"/>
			<path d="M331.083,245.333V96c0-3.179-1.429-6.229-3.904-8.235c-2.475-2.005-5.696-2.837-8.853-2.219L211.659,106.88
				c-4.992,1.003-8.576,5.376-8.576,10.453v121.643c-6.272-2.688-13.461-4.309-21.333-4.309c-23.915,0-42.667,14.059-42.667,32
				c0,17.941,18.752,32,42.667,32c23.915,0,42.667-14.059,42.667-32V126.08l85.333-17.067v108.629
				c-6.272-2.688-13.461-4.309-21.333-4.309c-23.915,0-42.667,14.059-42.667,32s18.752,32,42.667,32
				S331.083,263.275,331.083,245.333z M181.749,277.333c-13.013,0-21.333-6.315-21.333-10.667S168.736,256,181.749,256
				c13.013,0,21.333,6.315,21.333,10.667C203.083,271.04,194.763,277.333,181.749,277.333z M267.083,245.333
				c0-4.352,8.32-10.667,21.333-10.667s21.333,6.315,21.333,10.667c0,4.352-8.32,10.667-21.333,10.667
				S267.083,249.707,267.083,245.333z"/>
		</g>
	</g>
</g>
</svg>