<svg width="40" height="40" viewBox="0 0 40 40" fill="none" xmlns="http://www.w3.org/2000/svg">
<rect y="0.23103" width="39.537" height="39.5379" rx="19.7685" fill="#1F1F1F"/>
<path d="M25.2712 21.9999C24.7049 22.0003 24.1471 22.1388 23.6461 22.4032C23.145 22.6677 22.7158 23.0502 22.3954 23.5178L17.5195 21.3136C17.8659 20.4764 17.8672 19.536 17.5233 18.6978L22.3924 16.4824C22.8673 17.1699 23.5725 17.6643 24.3803 17.8759C25.188 18.0874 26.0447 18.0021 26.795 17.6355C27.5453 17.2688 28.1395 16.6451 28.4698 15.8774C28.8001 15.1097 28.8446 14.2489 28.5953 13.4512C28.3459 12.6535 27.8193 11.9716 27.1108 11.5293C26.4024 11.087 25.559 10.9136 24.7338 11.0405C23.9086 11.1674 23.1561 11.5862 22.6129 12.221C22.0696 12.8557 21.7716 13.6644 21.7729 14.5003C21.7761 14.6981 21.7962 14.8953 21.8329 15.0897L16.6566 17.4446C16.1594 16.9783 15.537 16.6675 14.8659 16.5505C14.1948 16.4334 13.5041 16.5152 12.8787 16.7857C12.2534 17.0563 11.7205 17.5038 11.3457 18.0733C10.9709 18.6429 10.7705 19.3096 10.769 19.9917C10.7675 20.6737 10.965 21.3413 11.3373 21.9125C11.7096 22.4837 12.2405 22.9335 12.8646 23.2068C13.4888 23.4801 14.1791 23.5649 14.8508 23.4508C15.5224 23.3367 16.1461 23.0287 16.6453 22.5646L21.8351 24.9105C21.7991 25.1047 21.7793 25.3016 21.7759 25.4992C21.7758 26.1915 21.9807 26.8683 22.3648 27.444C22.7489 28.0197 23.2949 28.4684 23.9338 28.7334C24.5726 28.9984 25.2756 29.0678 25.9538 28.9328C26.6321 28.7978 27.2551 28.4644 27.7441 27.9748C28.233 27.4853 28.566 26.8616 28.7009 26.1826C28.8358 25.5036 28.7665 24.7997 28.5018 24.1602C28.2371 23.5206 27.7889 22.974 27.2138 22.5894C26.6388 22.2049 25.9628 21.9997 25.2712 21.9999ZM25.2712 12.5001C25.6664 12.5 26.0527 12.6171 26.3814 12.8368C26.71 13.0565 26.9662 13.3688 27.1175 13.7343C27.2689 14.0998 27.3085 14.502 27.2315 14.89C27.1545 15.278 26.9643 15.6345 26.6849 15.9143C26.4056 16.1941 26.0496 16.3847 25.662 16.4619C25.2745 16.5391 24.8727 16.4996 24.5076 16.3482C24.1425 16.1969 23.8304 15.9405 23.6109 15.6116C23.3913 15.2826 23.2741 14.8959 23.2741 14.5003C23.2745 13.97 23.485 13.4616 23.8595 13.0866C24.2339 12.7116 24.7416 12.5007 25.2712 12.5001ZM14.2849 21.9999C13.8898 22 13.5034 21.8828 13.1748 21.6631C12.8461 21.4435 12.5899 21.1311 12.4386 20.7657C12.2873 20.4002 12.2476 19.998 12.3246 19.61C12.4016 19.2219 12.5918 18.8655 12.8712 18.5857C13.1506 18.3059 13.5066 18.1153 13.8941 18.0381C14.2817 17.9608 14.6834 18.0004 15.0485 18.1518C15.4136 18.3031 15.7257 18.5595 15.9453 18.8884C16.1648 19.2174 16.282 19.6041 16.282 19.9997C16.2814 20.5299 16.0709 21.0382 15.6965 21.4131C15.3221 21.7881 14.8145 21.9991 14.2849 21.9999ZM25.2712 27.4993C24.8761 27.4993 24.4898 27.382 24.1613 27.1622C23.8327 26.9425 23.5767 26.6301 23.4255 26.2646C23.2742 25.8991 23.2347 25.497 23.3118 25.109C23.3889 24.721 23.5791 24.3646 23.8585 24.0849C24.1379 23.8051 24.4939 23.6146 24.8815 23.5375C25.269 23.4603 25.6707 23.4999 26.0358 23.6513C26.4008 23.8027 26.7129 24.059 26.9324 24.388C27.1519 24.7169 27.2691 25.1036 27.2691 25.4992C27.2687 26.0295 27.0581 26.538 26.6835 26.9131C26.3089 27.2881 25.801 27.4989 25.2712 27.4993Z" fill="white"/>
</svg>
