<svg width="24" height="24" viewBox="0 0 24 24" fill="none" xmlns="http://www.w3.org/2000/svg">
<g clip-path="url(#clip0_8_3235)">
<path d="M23.421 16.583L20.13 13.292C20.0383 13.1943 19.9279 13.1161 19.8053 13.0619C19.6827 13.0077 19.5505 12.9788 19.4166 12.9767C19.2826 12.9746 19.1496 12.9995 19.0254 13.0498C18.9012 13.1001 18.7884 13.1749 18.6937 13.2697C18.599 13.3645 18.5243 13.4773 18.474 13.6016C18.4238 13.7258 18.399 13.8588 18.4012 13.9928C18.4033 14.1268 18.4324 14.259 18.4867 14.3815C18.5409 14.504 18.6193 14.6144 18.717 14.706L21.007 17C19.7621 17.0028 18.5293 16.7566 17.381 16.2757C16.2328 15.7948 15.1924 15.0891 14.321 14.2C14.2242 14.1109 14.1106 14.0421 13.9867 13.9978C13.8629 13.9535 13.7314 13.9345 13.6001 13.9419C13.4687 13.9494 13.3403 13.9832 13.2222 14.0413C13.1042 14.0993 12.999 14.1805 12.913 14.28L12.9 14.3C12.7319 14.4956 12.6458 14.7486 12.6598 15.0061C12.6738 15.2636 12.7867 15.5058 12.975 15.682C14.0248 16.7437 15.2767 17.5843 16.6567 18.1542C18.0367 18.7241 19.517 19.0117 21.01 19L18.717 21.293C18.6125 21.3829 18.5277 21.4934 18.468 21.6176C18.4082 21.7418 18.3748 21.877 18.3698 22.0147C18.3647 22.1524 18.3882 22.2897 18.4388 22.4179C18.4893 22.5461 18.5658 22.6625 18.6635 22.7598C18.7612 22.857 18.8779 22.933 19.0063 22.983C19.1347 23.033 19.2721 23.0559 19.4098 23.0503C19.5475 23.0447 19.6826 23.0107 19.8065 22.9504C19.9304 22.8901 20.0406 22.8049 20.13 22.7L23.421 19.409C23.7953 19.034 24.0056 18.5259 24.0056 17.996C24.0056 17.4662 23.7953 16.958 23.421 16.583Z" fill="white"/>
<path d="M21.007 7.00002L18.717 9.29002C18.6975 9.31634 18.6795 9.34372 18.663 9.37202C18.5016 9.56877 18.422 9.82001 18.4407 10.0738C18.4593 10.3276 18.5748 10.5645 18.7632 10.7355C18.9516 10.9066 19.1985 10.9987 19.4529 10.9928C19.7073 10.987 19.9497 10.8836 20.13 10.704L21.836 9.00002L23.422 7.41502C23.6902 7.14478 23.8756 6.80362 23.9566 6.43162C24.0375 6.05963 24.0106 5.67226 23.879 5.31502C23.7819 5.04157 23.6255 4.79297 23.421 4.58702L20.13 1.30002C20.0387 1.20083 19.9283 1.12112 19.8054 1.06569C19.6825 1.01026 19.5497 0.980241 19.4149 0.977448C19.2802 0.974656 19.1462 0.999144 19.0211 1.04944C18.8961 1.09974 18.7824 1.1748 18.6871 1.27013C18.5918 1.36545 18.5167 1.47907 18.4664 1.60414C18.4161 1.72921 18.3916 1.86317 18.3944 1.99795C18.3972 2.13273 18.4272 2.26555 18.4827 2.38844C18.5381 2.51132 18.6178 2.62173 18.717 2.71302L21.01 5.00502C16.077 5.01702 13.373 7.67902 10.921 10.479C8.66901 7.93702 6.00001 5.40002 1.48701 5.04602L1.00601 5.00002C0.740795 5.00002 0.486442 5.10538 0.298905 5.29291C0.111369 5.48045 0.00601196 5.73481 0.00601196 6.00002C0.0111321 6.26363 0.118133 6.51502 0.304571 6.70146C0.491009 6.8879 0.742399 6.9949 1.00601 7.00002C1.07801 7.00002 1.29301 7.03302 1.29301 7.03302C5.18901 7.32802 7.42501 9.52202 9.60001 12C7.43801 14.466 5.21701 16.7 1.35301 16.96L0.953012 16.981C0.689785 16.9975 0.44387 17.1178 0.269368 17.3156C0.0948652 17.5133 0.00606854 17.7723 0.022512 18.0355C0.0389554 18.2987 0.159292 18.5447 0.357049 18.7192C0.554806 18.8937 0.813785 18.9825 1.07701 18.966C1.23301 18.959 1.48701 18.953 1.61201 18.943C6.63201 18.556 9.35501 15.343 11.783 12.534C14.235 9.70002 16.551 7.01802 21.007 7.00002Z" fill="white"/>
</g>
<defs>
<clipPath id="clip0_8_3235">
<rect width="24" height="24" fill="white"/>
</clipPath>
</defs>
</svg>
