<svg width="32" height="32" viewBox="0 0 32 32" fill="none" xmlns="http://www.w3.org/2000/svg">
<rect width="32" height="32" rx="10" fill="#1F1F1F"/>
<g clip-path="url(#clip0_8_3160)">
<path d="M16 10.0039C16.8295 10.0039 17.502 9.33146 17.502 8.50196C17.502 7.67245 16.8295 7 16 7C15.1705 7 14.498 7.67245 14.498 8.50196C14.498 9.33146 15.1705 10.0039 16 10.0039Z" fill="white" fill-opacity="0.3"/>
<path d="M16 17.5078C16.8295 17.5078 17.502 16.8354 17.502 16.0059C17.502 15.1764 16.8295 14.5039 16 14.5039C15.1705 14.5039 14.498 15.1764 14.498 16.0059C14.498 16.8354 15.1705 17.5078 16 17.5078Z" fill="white" fill-opacity="0.3"/>
<path d="M16 25.0117C16.8295 25.0117 17.502 24.3393 17.502 23.5098C17.502 22.6803 16.8295 22.0078 16 22.0078C15.1705 22.0078 14.498 22.6803 14.498 23.5098C14.498 24.3393 15.1705 25.0117 16 25.0117Z" fill="white" fill-opacity="0.3"/>
</g>
<defs>
<clipPath id="clip0_8_3160">
<rect width="18" height="18" fill="white" transform="translate(7 7)"/>
</clipPath>
</defs>
</svg>
